<svg aria-hidden="true" style="position: absolute; width: 0; height: 0; overflow: hidden;" version="1.1" xmlns="http://www.w3.org/2000/svg" xmlns:xlink="http://www.w3.org/1999/xlink">
<defs>
<symbol id="digital-marketing" viewBox="0 0 32 32">
<path d="M11.728 13.328v-11.728c0-0.908-0.692-1.6-1.6-1.6h-5.336c-0.899 0-1.6 0.692-1.6 1.6v11.728c0 0.908 0.701 1.6 1.6 1.6h5.336c0.908 0 1.6-0.692 1.6-1.6zM10.664 11.728h-6.4v-8.528h6.4v8.528zM4.791 1.064h5.336c0.32 0 0.536 0.208 0.536 0.536v0.528h-6.4v-0.528c0-0.329 0.208-0.536 0.528-0.536zM4.264 13.328v-0.528h6.4v0.528c0 0.32-0.216 0.536-0.536 0.536h-5.336c-0.32 0-0.528-0.216-0.528-0.536z"></path>
<path d="M9.92 7.464l-4.056-3.252v6.504l4.056-3.252zM6.928 6.452l1.28 1.012-1.28 1.012v-2.024z"></path>
<path d="M14.928 9.064c0-3.52 2.88-6.4 6.4-6.4 1.496 0 2.992 0.536 4.16 1.488l-1.168 1.176c-2.084-1.652-5.068-1.332-6.72 0.744-0.701 0.856-1.072 1.929-1.072 2.992h1.072c0-2.084 1.652-3.736 3.728-3.736 0.804 0 1.6 0.268 2.24 0.744l-1.168 1.176c-0.329-0.208-0.701-0.32-1.072-0.32-1.176 0-2.128 0.96-2.128 2.136h1.064c0-0.588 0.476-1.064 1.064-1.064 0.112 0 0.164 0 0.268 0.052l-0.64 0.64 0.744 0.744 0.64-0.64c0 0.104 0.061 0.156 0.061 0.268 0 0.588-0.484 1.064-1.072 1.064v1.072c1.176 0 2.136-0.96 2.136-2.136 0-0.372-0.112-0.744-0.32-1.064l1.176-1.176c1.219 1.652 0.899 3.996-0.752 5.224-0.64 0.484-1.436 0.752-2.24 0.752v1.064c2.672 0 4.8-2.136 4.8-4.8 0-1.064-0.372-2.136-1.064-2.992l1.116-1.116c2.292 2.664 1.972 6.72-0.744 9.012-1.116 0.96-2.612 1.496-4.108 1.496v1.064c4.108 0 7.472-3.304 7.472-7.464 0-1.816-0.649-3.52-1.816-4.912l0.96-0.951h2.456v-1.072h-2.136v-2.128h-1.064v2.448l-0.96 0.96c-3.148-2.664-7.844-2.344-10.569 0.744-1.168 1.392-1.808 3.096-1.808 4.912h1.064z"></path>
<path d="M26.128 19.728h-4.688l-10.136-3.728h-1.176c-0.908 0-1.6 0.692-1.6 1.6v10.664c0 0.908 0.692 1.6 1.6 1.6h1.176l10.136-4.264h1.488v4.8c0 0.899 0.692 1.6 1.6 1.6s1.6-0.701 1.6-1.6v-4.8c0.908 0 1.6-0.701 1.6-1.6v-2.672c0-0.908-0.692-1.6-1.6-1.6zM11.728 17.271l9.072 3.364v4.056l-9.072 3.84v-11.261zM9.6 28.264v-10.664c0-0.329 0.208-0.536 0.528-0.536h0.536v11.736h-0.536c-0.32 0-0.528-0.216-0.528-0.536zM25.064 30.4c0 0.32-0.216 0.528-0.536 0.528s-0.528-0.208-0.528-0.528v-4.8h1.064v4.8zM26.664 24c0 0.32-0.216 0.528-0.536 0.528h-4.264v-3.728h4.264c0.32 0 0.536 0.208 0.536 0.528v2.672z"></path>
<path d="M5.328 21.864h2.136v1.064h-2.136v-1.064z"></path>
<path d="M5.492 17.981l0.752-0.752 1.591 1.583-0.761 0.752-1.583-1.583z"></path>
<path d="M5.492 26.811l1.583-1.583 0.752 0.752-1.583 1.583-0.752-0.752z"></path>
<path d="M13.864 10.179v0.536c0 3.2 2.612 5.812 5.812 5.812h0.588v-6.4h-5.864l-0.536 0.052zM19.2 11.2v4.264c-2.249-0.216-4.004-2.024-4.221-4.264h4.221z"></path>
<path d="M12.8 1.6h3.2v1.064h-3.2v-1.064z"></path>
<path d="M29.864 11.2v10.128c0 0.32-0.216 0.536-0.536 0.536h-0.528v1.064h0.528c0.908 0 1.6-0.692 1.6-1.6v-10.128h-1.064z"></path>
<path d="M2.128 21.328v-10.128h-1.064v10.128c0 0.908 0.692 1.6 1.6 1.6h1.6v-1.064h-1.6c-0.32 0-0.536-0.216-0.536-0.536z"></path>
</symbol>
<symbol id="home" viewBox="0 0 32 32">
<path d="M23.438 8.865c-0.112-0.112-0.277-0.182-0.441-0.182s-0.329 0.069-0.441 0.182c-0.121 0.121-0.182 0.277-0.182 0.441s0.061 0.329 0.182 0.441c0.112 0.121 0.277 0.19 0.441 0.19s0.329-0.069 0.441-0.19c0.112-0.112 0.182-0.277 0.182-0.441s-0.069-0.32-0.182-0.441z"></path>
<path d="M9.367 17.617h-4.999c-0.346 0-0.623 0.285-0.623 0.631v4.999c0 0.346 0.277 0.623 0.623 0.623h4.999c0.346 0 0.631-0.277 0.631-0.623v-4.999c0-0.346-0.285-0.631-0.631-0.631zM8.744 22.625h-3.745v-3.753h3.745v3.753z"></path>
<path d="M31.611 13.103c-0.233-0.095-0.502-0.043-0.683 0.138l-6.365 6.365c0 0 0 0 0 0s0 0 0 0l-7.429 7.429c0 0 0 0 0 0s0 0 0 0l-3.892 3.892c-0.182 0.182-0.233 0.45-0.138 0.683 0.104 0.233 0.329 0.389 0.579 0.389h17.687c0.346 0 0.623-0.285 0.623-0.631v-17.686c0-0.251-0.147-0.476-0.381-0.579zM30.746 30.746h-15.55l2.378-2.387 0.597 0.597c0.121 0.121 0.285 0.182 0.441 0.182 0.164 0 0.32-0.061 0.45-0.182 0.242-0.242 0.242-0.64 0-0.882l-0.597-0.597 1.591-1.591 0.588 0.597c0.13 0.121 0.285 0.182 0.45 0.182 0.156 0 0.32-0.061 0.441-0.182 0.242-0.242 0.242-0.64 0-0.882l-0.597-0.597 1.591-1.591 0.597 0.597c0.121 0.121 0.277 0.182 0.441 0.182 0.156 0 0.32-0.061 0.441-0.182 0.242-0.242 0.242-0.64 0-0.882l-0.597-0.597 1.591-1.591 0.597 0.597c0.121 0.121 0.277 0.182 0.441 0.182 0.156 0 0.32-0.061 0.441-0.182 0.242-0.251 0.242-0.64 0-0.891l-0.597-0.588 1.591-1.591 0.597 0.597c0.121 0.121 0.285 0.182 0.441 0.182 0.164 0 0.32-0.061 0.441-0.182 0.242-0.251 0.242-0.64 0-0.891l-0.597-0.597 2.387-2.378v15.55z"></path>
<path d="M28.489 20.653c-0.233-0.104-0.51-0.043-0.683 0.13l-7.023 7.023c-0.173 0.173-0.233 0.45-0.13 0.683 0.095 0.233 0.32 0.381 0.571 0.381h7.023c0.346 0 0.623-0.277 0.623-0.623v-7.023c0-0.251-0.147-0.476-0.381-0.571zM27.624 27.624h-4.886l4.886-4.886v4.886z"></path>
<path d="M28.938 9.323c-0.173-0.173-0.432-0.225-0.657-0.147l-4.272 1.565c-0.078 0.035-0.156 0.078-0.225 0.147l-1.202 1.202-7.836-7.836c-0.112-0.121-0.268-0.19-0.441-0.19-0.164 0-0.32 0.069-0.441 0.19l-9.427 9.427h-2.309l12.177-12.177 6.685 6.685c0.242 0.242 0.64 0.242 0.882 0 0.251-0.242 0.251-0.64 0-0.882l-7.118-7.127c-0.251-0.251-0.64-0.251-0.891 0l-13.682 13.682c-0.182 0.182-0.234 0.45-0.138 0.683s0.329 0.389 0.579 0.389h0.623v16.432c0 0.346 0.277 0.631 0.623 0.631h9.937c0.346 0 0.623-0.285 0.623-0.631s-0.277-0.623-0.623-0.623h-9.306v-15.81h2.197c0.164 0 0.32-0.069 0.441-0.182l9.168-9.176 7.395 7.395-9.263 9.263v-5.613h4.368c0.346 0 0.631-0.285 0.631-0.623 0-0.346-0.285-0.631-0.631-0.631h-4.999c-0.346 0-0.623 0.285-0.623 0.631v7.248c0 0.069 0.017 0.138 0.035 0.208l-0.562 0.562c-0.986 0.986-0.986 2.595 0 3.581 0.502 0.502 1.15 0.744 1.799 0.744s1.297-0.242 1.79-0.735l5.276-5.276c0.242-0.242 0.242-0.64 0-0.882s-0.64-0.242-0.882 0l-3.996 3.996-1.825-1.825 11.425-11.416 1.816 1.816-4.359 4.368c-0.242 0.242-0.242 0.64 0 0.882s0.64 0.242 0.882 0l4.791-4.791c0.069-0.069 0.112-0.147 0.147-0.225l1.565-4.272c0.078-0.225 0.026-0.484-0.147-0.657zM13.76 26.326l-0.398 0.389c-0.242 0.242-0.562 0.381-0.908 0.381s-0.666-0.138-0.908-0.381c-0.242-0.242-0.381-0.562-0.381-0.908s0.138-0.666 0.381-0.908l0.389-0.398 1.825 1.825zM26.69 12.878l-1.306-1.306 2.058-0.752-0.752 2.058z"></path>
<path d="M21.042 19.927c-0.121-0.112-0.277-0.182-0.441-0.182s-0.329 0.069-0.45 0.182c-0.112 0.121-0.182 0.277-0.182 0.441s0.069 0.329 0.182 0.441c0.121 0.121 0.277 0.182 0.45 0.182 0.164 0 0.32-0.061 0.441-0.182 0.112-0.112 0.182-0.277 0.182-0.441s-0.069-0.32-0.182-0.441z"></path>
<path d="M14.305 9.436c-1.306 0-2.37 1.064-2.37 2.37 0 1.315 1.064 2.378 2.37 2.378 1.315 0 2.378-1.064 2.378-2.378 0-1.306-1.064-2.37-2.378-2.37zM14.305 12.93c-0.614 0-1.124-0.502-1.124-1.124 0-0.614 0.51-1.124 1.124-1.124 0.623 0 1.124 0.51 1.124 1.124 0 0.623-0.502 1.124-1.124 1.124z"></path>
</symbol>
<symbol id="paper" viewBox="0 0 32 32">
<path d="M4.592 22.936c-0.112 0-0.225-0.043-0.303-0.13-0.078-0.078-0.13-0.19-0.13-0.303v-15.905c0.026-1.055 0.458-2.067 1.211-2.802 0.761-0.735 1.782-1.15 2.837-1.142h18.448c0.112 0 0.225 0.043 0.303 0.121 0.078 0.087 0.13 0.199 0.13 0.311s-0.052 0.225-0.13 0.303c-0.078 0.087-0.19 0.13-0.303 0.13h-18.448c-0.83-0.009-1.626 0.311-2.223 0.891s-0.943 1.367-0.96 2.197v15.896c0 0.112-0.043 0.225-0.121 0.303-0.087 0.087-0.19 0.13-0.311 0.13z"></path>
<path d="M25.747 10.742h-2.698c-0.121 0-0.225-0.043-0.311-0.13-0.078-0.078-0.121-0.19-0.121-0.303s0.043-0.225 0.121-0.311c0.087-0.078 0.19-0.121 0.311-0.121h1.764c-0.173-0.32-0.268-0.666-0.294-1.021-0.017-0.363 0.035-0.718 0.164-1.055h-1.635c-0.121 0-0.225-0.043-0.311-0.121-0.078-0.087-0.121-0.199-0.121-0.311s0.043-0.225 0.121-0.303c0.087-0.087 0.19-0.13 0.311-0.13h2.318c0.078 0 0.156 0.026 0.216 0.061 0.069 0.043 0.121 0.104 0.164 0.173 0.035 0.061 0.052 0.138 0.052 0.216-0.009 0.087-0.035 0.156-0.078 0.225-0.087 0.138-0.873 1.427 0.294 2.361 0.069 0.052 0.121 0.13 0.147 0.216s0.017 0.182-0.009 0.259c-0.035 0.086-0.087 0.164-0.156 0.216-0.078 0.052-0.164 0.078-0.251 0.078z"></path>
<path d="M23.049 26.223c-0.121 0-0.225-0.052-0.311-0.13-0.078-0.087-0.121-0.19-0.121-0.303v-19.191c0-0.112 0.043-0.225 0.121-0.311 0.087-0.078 0.19-0.121 0.311-0.121 0.112 0 0.216 0.043 0.303 0.121 0.078 0.087 0.13 0.199 0.13 0.311v19.191c0 0.112-0.052 0.216-0.13 0.303-0.087 0.078-0.19 0.13-0.303 0.13z"></path>
<path d="M3.71 29.336c-0.709 0-1.401-0.251-1.937-0.709-0.087-0.069-0.173-0.147-0.251-0.225-0.484-0.484-0.83-1.098-0.995-1.764-0.156-0.666-0.138-1.366 0.078-2.015 0.208-0.657 0.597-1.237 1.116-1.686s1.15-0.744 1.825-0.856c0.026-0.009 0.052-0.009 0.078-0.009h16.493c0.112 0 0.216 0.043 0.294 0.112 0.078 0.078 0.13 0.173 0.138 0.285 0.009 0.104-0.026 0.216-0.095 0.303-0.061 0.087-0.164 0.138-0.268 0.156-0.519 0.087-1.003 0.32-1.401 0.657-0.407 0.346-0.701 0.796-0.856 1.297-0.164 0.502-0.182 1.038-0.061 1.557 0.121 0.51 0.389 0.977 0.761 1.349 0.061 0.061 0.121 0.121 0.19 0.173 0.372 0.311 0.839 0.493 1.332 0.51h0.078c0.337-0.009 0.666-0.087 0.977-0.225 0.415-0.199 0.77-0.502 1.021-0.891s0.389-0.839 0.389-1.306c0-0.112 0.043-0.225 0.121-0.303 0.087-0.078 0.19-0.13 0.311-0.13 0.112 0 0.216 0.052 0.303 0.13 0.078 0.078 0.13 0.19 0.13 0.303 0 0.631-0.182 1.245-0.519 1.773s-0.822 0.943-1.384 1.202c-0.415 0.199-0.873 0.303-1.323 0.311-0.017 0-0.035 0-0.052 0h-16.45c-0.017 0-0.026 0-0.043 0zM3.658 22.936c-0.519 0.095-1.003 0.32-1.392 0.666-0.398 0.355-0.683 0.796-0.848 1.297-0.156 0.502-0.173 1.038-0.043 1.548 0.121 0.51 0.389 0.977 0.761 1.341 0.061 0.061 0.121 0.121 0.19 0.182 0.381 0.311 0.856 0.493 1.349 0.502h14.417c-0.026-0.026-0.052-0.043-0.078-0.069-0.701-0.701-1.090-1.652-1.090-2.638 0-0.995 0.389-1.937 1.090-2.638 0.061-0.069 0.13-0.13 0.199-0.19h-14.556z"></path>
<path d="M26.655 10.742h-0.796c-0.121 0-0.225-0.043-0.311-0.13-0.078-0.078-0.121-0.19-0.121-0.303s0.043-0.225 0.121-0.311c0.087-0.078 0.19-0.121 0.311-0.121h0.796c0.623 0 1.237-0.182 1.756-0.528s0.925-0.839 1.168-1.418c0.242-0.571 0.311-1.202 0.199-1.825-0.112-0.614-0.407-1.176-0.848-1.626-0.432-0.45-0.995-0.752-1.6-0.891-0.614-0.13-1.245-0.078-1.834 0.147-0.579 0.225-1.081 0.623-1.444 1.133-0.355 0.51-0.553 1.116-0.571 1.738-0.009 0.061-0.017 0.112-0.043 0.164-0.017 0.052-0.052 0.104-0.095 0.138-0.043 0.043-0.087 0.069-0.138 0.095-0.061 0.017-0.112 0.026-0.173 0.026-0.052 0-0.112-0.017-0.164-0.035-0.052-0.026-0.095-0.061-0.138-0.104-0.035-0.035-0.069-0.087-0.087-0.138s-0.035-0.112-0.026-0.164c0.017-0.796 0.268-1.565 0.727-2.223 0.458-0.649 1.098-1.15 1.842-1.436 0.735-0.294 1.548-0.355 2.326-0.19s1.488 0.562 2.041 1.133c0.553 0.571 0.925 1.289 1.081 2.067 0.147 0.787 0.061 1.591-0.251 2.326s-0.83 1.358-1.496 1.799c-0.657 0.441-1.436 0.675-2.231 0.675v0z"></path>
<path d="M20.549 7.274h-12.999c-0.121 0-0.225-0.043-0.311-0.121-0.078-0.087-0.121-0.199-0.121-0.311s0.043-0.225 0.121-0.303c0.087-0.087 0.19-0.13 0.311-0.13h12.999c0.121 0 0.225 0.043 0.311 0.13 0.078 0.078 0.121 0.19 0.121 0.303s-0.043 0.225-0.121 0.311c-0.087 0.078-0.19 0.121-0.311 0.121z"></path>
<path d="M20.549 11.174h-3.468c-0.121 0-0.225-0.043-0.311-0.121-0.078-0.086-0.121-0.19-0.121-0.311 0-0.112 0.043-0.225 0.121-0.303 0.087-0.078 0.19-0.13 0.311-0.13h3.468c0.121 0 0.225 0.052 0.311 0.13 0.078 0.078 0.121 0.19 0.121 0.303 0 0.121-0.043 0.225-0.121 0.311-0.087 0.078-0.19 0.121-0.311 0.121z"></path>
<path d="M8.536 11.174h-0.986c-0.121 0-0.225-0.043-0.311-0.121-0.078-0.086-0.121-0.19-0.121-0.311 0-0.112 0.043-0.225 0.121-0.303 0.087-0.078 0.19-0.13 0.311-0.13h0.986c0.112 0 0.225 0.052 0.303 0.13 0.086 0.078 0.13 0.19 0.13 0.303 0 0.121-0.043 0.225-0.13 0.311-0.078 0.078-0.19 0.121-0.303 0.121z"></path>
<path d="M20.549 15.083h-3.295c-0.112 0-0.225-0.052-0.303-0.13s-0.13-0.19-0.13-0.303c0-0.121 0.052-0.225 0.13-0.311 0.078-0.078 0.19-0.121 0.303-0.121h3.295c0.121 0 0.225 0.043 0.311 0.121 0.078 0.086 0.121 0.19 0.121 0.311 0 0.112-0.043 0.225-0.121 0.303-0.087 0.078-0.19 0.13-0.311 0.13z"></path>
<path d="M8.043 15.083h-0.493c-0.121 0-0.225-0.052-0.311-0.13-0.078-0.078-0.121-0.19-0.121-0.303 0-0.121 0.043-0.225 0.121-0.311 0.087-0.078 0.19-0.121 0.311-0.121h0.493c0.112 0 0.225 0.043 0.303 0.121 0.086 0.086 0.13 0.19 0.13 0.311 0 0.112-0.043 0.225-0.13 0.303-0.078 0.078-0.19 0.13-0.303 0.13z"></path>
<path d="M20.549 18.984h-0.467c-0.112 0-0.225-0.043-0.303-0.13-0.078-0.078-0.13-0.19-0.13-0.303s0.052-0.225 0.13-0.303c0.078-0.087 0.19-0.13 0.303-0.13h0.467c0.121 0 0.225 0.043 0.311 0.13 0.078 0.078 0.121 0.19 0.121 0.303s-0.043 0.225-0.121 0.303c-0.087 0.087-0.19 0.13-0.311 0.13z"></path>
<path d="M13.379 18.984h-5.838c-0.112 0-0.225-0.043-0.303-0.13-0.078-0.078-0.13-0.19-0.13-0.303s0.052-0.225 0.13-0.303c0.078-0.087 0.19-0.13 0.303-0.13h5.838c0.121 0 0.225 0.043 0.311 0.13 0.078 0.078 0.121 0.19 0.121 0.303s-0.043 0.225-0.121 0.303c-0.086 0.087-0.19 0.13-0.311 0.13z"></path>
<path d="M12.515 17.254c-0.597 0-1.176-0.147-1.695-0.432-0.519-0.277-0.969-0.675-1.297-1.168s-0.528-1.055-0.588-1.643c-0.052-0.588 0.035-1.185 0.259-1.73s0.579-1.029 1.038-1.401c0.458-0.372 1.003-0.631 1.583-0.744 0.579-0.121 1.176-0.086 1.738 0.086 0.571 0.164 1.081 0.476 1.505 0.891 0.502 0.51 0.839 1.15 0.977 1.842 0.138 0.701 0.069 1.418-0.199 2.076-0.277 0.657-0.735 1.219-1.323 1.617-0.597 0.389-1.289 0.605-1.998 0.605zM12.515 10.932c-0.631 0-1.245 0.216-1.73 0.614-0.493 0.406-0.822 0.96-0.951 1.583-0.121 0.614-0.026 1.263 0.277 1.816 0.294 0.553 0.778 0.995 1.358 1.237 0.588 0.242 1.237 0.268 1.834 0.087 0.605-0.182 1.133-0.571 1.479-1.090 0.355-0.528 0.51-1.159 0.45-1.79-0.061-0.623-0.337-1.211-0.787-1.661-0.251-0.251-0.553-0.458-0.882-0.588-0.337-0.138-0.692-0.208-1.046-0.208v0z"></path>
<path d="M11.667 14.089c-0.285 0-0.562-0.095-0.778-0.277-0.225-0.182-0.372-0.432-0.424-0.709-0.061-0.277-0.017-0.562 0.121-0.813 0.13-0.251 0.346-0.45 0.605-0.553 0.268-0.112 0.553-0.13 0.83-0.043 0.268 0.078 0.502 0.259 0.657 0.493 0.164 0.233 0.233 0.519 0.208 0.796-0.035 0.285-0.156 0.545-0.355 0.752-0.112 0.112-0.251 0.199-0.398 0.259s-0.311 0.095-0.467 0.095zM11.667 12.506c-0.086 0-0.164 0.026-0.233 0.078-0.061 0.052-0.104 0.13-0.121 0.208-0.017 0.086-0.009 0.173 0.035 0.242 0.035 0.078 0.104 0.13 0.182 0.164s0.164 0.035 0.242 0.009c0.078-0.017 0.147-0.069 0.19-0.138 0.052-0.069 0.069-0.156 0.061-0.242-0.009-0.078-0.043-0.156-0.104-0.216-0.035-0.035-0.069-0.061-0.112-0.078s-0.095-0.026-0.138-0.026z"></path>
<path d="M17.254 20.324c-0.112 0-0.225-0.043-0.311-0.13l-3.364-3.364c-0.043-0.043-0.069-0.087-0.095-0.138s-0.035-0.112-0.035-0.173c0-0.052 0.009-0.112 0.035-0.164 0.017-0.052 0.052-0.104 0.095-0.138 0.035-0.043 0.086-0.078 0.138-0.095 0.052-0.026 0.112-0.035 0.164-0.035 0.061 0 0.121 0.009 0.173 0.035s0.095 0.052 0.138 0.095l3.235 3.235 0.83-0.052 0.052-0.83-0.078-0.078-0.701-0.078c-0.104-0.009-0.19-0.052-0.259-0.121s-0.112-0.164-0.121-0.259l-0.061-0.51-0.519-0.061c-0.095-0.009-0.182-0.061-0.251-0.13s-0.121-0.156-0.13-0.251l-0.078-0.709-1.038-1.038c-0.078-0.078-0.121-0.19-0.121-0.303s0.043-0.225 0.13-0.303c0.078-0.078 0.182-0.13 0.294-0.13 0.121 0 0.225 0.043 0.311 0.121l1.142 1.15c0.069 0.061 0.112 0.156 0.121 0.251l0.061 0.519 0.51 0.061c0.104 0.009 0.19 0.052 0.259 0.121s0.112 0.156 0.121 0.259l0.061 0.51 0.519 0.061c0.095 0.009 0.19 0.052 0.259 0.121l0.311 0.32c0.043 0.043 0.078 0.095 0.095 0.147 0.026 0.061 0.035 0.121 0.026 0.182l-0.078 1.41c-0.009 0.104-0.052 0.208-0.13 0.285-0.069 0.069-0.173 0.121-0.277 0.121l-1.41 0.087h-0.026z"></path>
</symbol>
<symbol id="monitor" viewBox="0 0 32 32">
<path d="M30.4 0h-28.809c-0.882 0-1.591 0.709-1.591 1.591v19.209c0 0.882 0.709 1.6 1.591 1.6h9.072c1.47 0 2.664 1.194 2.664 2.664s-1.194 2.664-2.664 2.664c-0.009 0-0.017 0.009-0.026 0.009-0.035 0-0.069 0.009-0.112 0.017-0.026 0.009-0.061 0.017-0.086 0.026-0.026 0.017-0.061 0.035-0.086 0.061-0.026 0.017-0.052 0.035-0.078 0.061-0.017 0.026-0.035 0.052-0.052 0.078-0.026 0.026-0.043 0.061-0.061 0.095 0 0.009-0.009 0.017-0.009 0.017l-1.064 3.2c-0.095 0.285 0.061 0.588 0.337 0.675 0.052 0.017 0.112 0.035 0.173 0.035h12.8c0.294-0.009 0.528-0.242 0.528-0.536 0-0.061-0.009-0.112-0.026-0.173l-1.064-3.2c0 0-0.009-0.009-0.009-0.017-0.017-0.035-0.035-0.069-0.061-0.095-0.017-0.026-0.035-0.052-0.052-0.078-0.026-0.026-0.052-0.043-0.078-0.061-0.026-0.026-0.061-0.043-0.087-0.061-0.035-0.009-0.061-0.017-0.087-0.026-0.043-0.009-0.078-0.017-0.121-0.017 0 0-0.009-0.009-0.017-0.009-1.47 0-2.664-1.194-2.664-2.664s1.194-2.664 2.664-2.664h9.072c0.882 0 1.591-0.718 1.591-1.6v-19.209c0-0.882-0.709-1.591-1.591-1.591zM17.6 25.064c0 1.911 1.436 3.511 3.338 3.71l0.718 2.154h-11.321l0.718-2.154c1.903-0.199 3.338-1.799 3.347-3.71 0-1.003-0.406-1.972-1.133-2.664h5.457c-0.727 0.692-1.133 1.661-1.124 2.664zM30.928 20.8c0 0.294-0.233 0.528-0.528 0.528h-28.809c-0.294 0-0.528-0.233-0.528-0.528v-1.6h29.864v1.6zM1.064 18.128v-16.536c0-0.294 0.234-0.528 0.528-0.528h28.809c0.294 0 0.528 0.234 0.528 0.528v16.536h-29.864z"></path>
<path d="M22.564 8.026l-1.539-0.519 0.727-1.444c0.104-0.208 0.061-0.45-0.095-0.614l-1.514-1.514c-0.164-0.156-0.407-0.199-0.614-0.095l-1.453 0.726-0.51-1.539c-0.069-0.216-0.277-0.363-0.502-0.363h-2.136c-0.225 0-0.432 0.147-0.502 0.363l-0.51 1.539-1.453-0.727c-0.208-0.104-0.45-0.061-0.614 0.095l-1.514 1.513c-0.156 0.164-0.199 0.407-0.095 0.614l0.726 1.444-1.539 0.519c-0.216 0.069-0.363 0.277-0.363 0.502v2.136c0 0.225 0.147 0.432 0.363 0.502l1.539 0.51-0.726 1.453c-0.104 0.208-0.061 0.45 0.095 0.614l1.514 1.514c0.164 0.156 0.406 0.199 0.614 0.095l1.453-0.726 0.51 1.539c0.069 0.216 0.277 0.363 0.502 0.363h2.136c0.225 0 0.432-0.147 0.502-0.363l0.519-1.539 1.444 0.726c0.208 0.104 0.45 0.061 0.614-0.095l1.514-1.514c0.156-0.164 0.199-0.406 0.095-0.614l-0.727-1.453 1.539-0.51c0.216-0.069 0.363-0.277 0.363-0.502v-2.136c0-0.225-0.147-0.432-0.363-0.502zM21.864 10.275l-1.756 0.588c-0.277 0.095-0.432 0.398-0.337 0.675 0.009 0.026 0.017 0.052 0.026 0.069l0.83 1.652-0.969 0.969-1.652-0.83c-0.259-0.13-0.579-0.026-0.718 0.242-0.009 0.017-0.017 0.043-0.026 0.069l-0.588 1.756h-1.358l-0.588-1.756c-0.095-0.277-0.398-0.432-0.675-0.337-0.026 0.009-0.052 0.017-0.069 0.026l-1.652 0.83-0.969-0.969 0.83-1.652c0.13-0.259 0.026-0.579-0.242-0.709-0.026-0.017-0.043-0.026-0.069-0.035l-1.756-0.588v-1.358l1.756-0.588c0.277-0.095 0.432-0.398 0.337-0.675-0.009-0.026-0.017-0.052-0.026-0.069l-0.83-1.652 0.969-0.969 1.652 0.83c0.259 0.13 0.579 0.026 0.709-0.242 0.017-0.026 0.026-0.043 0.035-0.069l0.588-1.756h1.358l0.588 1.756c0.095 0.277 0.398 0.432 0.675 0.337 0.026-0.009 0.052-0.017 0.078-0.026l1.652-0.83 0.96 0.969-0.822 1.652c-0.138 0.259-0.026 0.579 0.233 0.709 0.026 0.017 0.052 0.026 0.069 0.035l1.756 0.588v1.358z"></path>
<path d="M16 6.4c-1.773 0-3.2 1.427-3.2 3.2 0 1.764 1.427 3.2 3.2 3.2 1.764 0 3.2-1.436 3.2-3.2-0.009-1.773-1.436-3.2-3.2-3.2zM16 11.728c-1.185 0-2.136-0.951-2.136-2.128 0-1.185 0.951-2.136 2.136-2.136 1.176 0 2.128 0.951 2.128 2.136 0 1.176-0.951 2.128-2.128 2.128z"></path>
</symbol>
<symbol id="graph" viewBox="0 0 32 32">
<path d="M30.045 12.765h-5.63v17.358h-1.868v-13.267h-5.63v13.267h-1.877v-16.865h-5.622v16.865h-1.842v-9.349h-5.63v9.349h-1.946v1.877h32v-1.877h-1.955v-17.358zM5.699 22.651v1.868h-1.877v-1.868h1.877zM3.823 30.123v-3.728h1.877v3.728h-1.877zM13.163 15.135v1.877h-1.868v-1.877h1.868zM11.295 30.123v-11.235h1.868v11.235h-1.868zM20.67 18.733v1.868h-1.877v-1.868h1.877zM18.794 30.123v-7.645h1.877v7.645h-1.877zM28.169 14.642v1.877h-1.877v-1.877h1.877zM26.292 30.123v-11.728h1.877v11.728h-1.877z"></path>
<path d="M26.387 0v1.868h2.404l-8.64 8.64-7.152-7.152-12.999 12.99 1.332 1.332 11.667-11.676 7.152 7.161 9.972-9.963v2.413h1.877v-5.613h-5.613z"></path>
</symbol>
<symbol id="alarm" viewBox="0 0 33 32">
<path d="M16.337 4.774c-2.266 0-4.48 0.657-6.365 1.894-1.885 1.228-3.356 2.984-4.221 5.034s-1.098 4.307-0.649 6.486c0.441 2.171 1.531 4.169 3.131 5.743 1.609 1.565 3.65 2.638 5.872 3.070s4.523 0.208 6.616-0.64c2.093-0.848 3.883-2.283 5.146-4.134 1.263-1.842 1.929-4.013 1.929-6.227 0-2.975-1.211-5.829-3.356-7.931-2.154-2.102-5.059-3.287-8.104-3.295zM25.877 16.432h1.021c-0.104 2.439-1.090 4.765-2.776 6.556l-0.727-0.701c-0.035-0.043-0.087-0.078-0.138-0.095-0.061-0.026-0.112-0.035-0.173-0.035s-0.121 0.009-0.173 0.035c-0.052 0.017-0.104 0.052-0.147 0.095-0.035 0.043-0.069 0.087-0.095 0.138-0.017 0.052-0.035 0.112-0.035 0.173 0 0.052 0.017 0.112 0.035 0.164 0.026 0.052 0.061 0.104 0.095 0.138l0.718 0.709c-1.825 1.652-4.203 2.621-6.694 2.716v-0.995c0-0.121-0.043-0.233-0.13-0.311-0.087-0.087-0.199-0.13-0.32-0.13-0.112 0-0.225 0.043-0.311 0.13-0.086 0.078-0.13 0.19-0.13 0.311v0.995c-2.491-0.095-4.869-1.064-6.703-2.716l0.718-0.709c0.043-0.035 0.078-0.087 0.104-0.138 0.017-0.052 0.035-0.112 0.035-0.164 0-0.061-0.017-0.121-0.035-0.173-0.026-0.052-0.061-0.095-0.104-0.138-0.035-0.043-0.086-0.078-0.138-0.095-0.061-0.026-0.112-0.035-0.173-0.035s-0.121 0.009-0.173 0.035c-0.052 0.017-0.104 0.052-0.147 0.095l-0.718 0.701c-1.687-1.79-2.672-4.117-2.776-6.556h1.021c0.121 0 0.234-0.043 0.32-0.13 0.078-0.078 0.13-0.19 0.13-0.303 0-0.121-0.052-0.233-0.13-0.311-0.087-0.086-0.199-0.13-0.32-0.13h-1.021c0.104-2.439 1.090-4.765 2.776-6.556l0.718 0.701c0.086 0.086 0.199 0.13 0.32 0.13s0.233-0.043 0.311-0.13c0.086-0.078 0.138-0.19 0.138-0.311 0-0.112-0.052-0.225-0.138-0.303l-0.718-0.709c1.834-1.652 4.212-2.612 6.703-2.716v0.995c0 0.121 0.043 0.234 0.13 0.311 0.078 0.087 0.199 0.13 0.311 0.13 0.121 0 0.233-0.043 0.32-0.13 0.087-0.078 0.13-0.19 0.13-0.311v-0.995c2.491 0.104 4.861 1.064 6.694 2.716l-0.718 0.709c-0.043 0.035-0.069 0.086-0.095 0.138s-0.035 0.112-0.035 0.164c0 0.061 0.009 0.121 0.035 0.173s0.052 0.095 0.095 0.138c0.043 0.043 0.095 0.078 0.147 0.095 0.052 0.026 0.112 0.035 0.173 0.035s0.112-0.009 0.173-0.035c0.052-0.017 0.104-0.052 0.138-0.095l0.718-0.701c1.695 1.79 2.681 4.117 2.785 6.556h-1.021c-0.121 0-0.233 0.043-0.32 0.13-0.087 0.078-0.13 0.19-0.13 0.311 0 0.112 0.043 0.225 0.13 0.303 0.087 0.087 0.199 0.13 0.32 0.13v0z"></path>
<path d="M21.414 15.559h-2.819c-0.087-0.441-0.311-0.839-0.631-1.15-0.32-0.32-0.727-0.536-1.176-0.623v-4.324c0-0.112-0.043-0.225-0.13-0.303-0.087-0.086-0.199-0.13-0.32-0.13-0.112 0-0.233 0.043-0.311 0.13-0.086 0.078-0.13 0.19-0.13 0.303v4.324c-0.415 0.086-0.787 0.268-1.098 0.545-0.311 0.268-0.536 0.623-0.657 1.012s-0.13 0.804-0.035 1.202c0.104 0.389 0.311 0.752 0.605 1.046 0.294 0.285 0.666 0.493 1.072 0.588 0.398 0.095 0.822 0.087 1.219-0.026 0.407-0.121 0.761-0.346 1.038-0.649 0.285-0.303 0.476-0.675 0.553-1.072h2.819c0.121 0 0.233-0.043 0.32-0.13 0.078-0.078 0.13-0.19 0.13-0.303 0-0.121-0.052-0.233-0.13-0.311-0.087-0.086-0.199-0.13-0.32-0.13zM16.337 17.366c-0.277 0-0.545-0.078-0.778-0.225-0.233-0.156-0.406-0.372-0.519-0.623-0.104-0.251-0.13-0.528-0.078-0.796 0.052-0.259 0.19-0.51 0.381-0.701 0.199-0.19 0.45-0.32 0.727-0.372 0.268-0.061 0.553-0.026 0.804 0.078 0.259 0.104 0.476 0.277 0.631 0.502s0.242 0.493 0.242 0.77c0 0.363-0.147 0.709-0.415 0.969-0.259 0.259-0.623 0.398-0.995 0.398z"></path>
<path d="M31.965 2.231l-1.565-1.531c-0.458-0.45-1.081-0.701-1.73-0.701s-1.271 0.251-1.738 0.701l-1.219 1.202c-0.043 0.043-0.078 0.087-0.104 0.138-0.017 0.052-0.026 0.112-0.026 0.173 0 0.052 0.009 0.112 0.026 0.164 0.026 0.052 0.061 0.104 0.104 0.138l1.159 1.142-1.721 1.678c-2.491-1.981-5.604-3.062-8.813-3.062s-6.314 1.081-8.804 3.062l-1.721-1.678 1.159-1.142c0.043-0.035 0.069-0.087 0.095-0.138s0.035-0.112 0.035-0.164c0-0.061-0.009-0.121-0.035-0.173s-0.052-0.095-0.095-0.138l-1.228-1.202c-0.458-0.45-1.081-0.701-1.73-0.701s-1.271 0.251-1.73 0.701l-1.565 1.531c-0.458 0.45-0.718 1.064-0.718 1.695 0 0.64 0.259 1.245 0.718 1.695l1.228 1.202c0.035 0.043 0.086 0.069 0.138 0.095 0.061 0.017 0.112 0.035 0.173 0.035s0.121-0.017 0.173-0.035c0.052-0.026 0.104-0.052 0.147-0.095l1.159-1.133 1.712 1.678c-2.145 2.595-3.252 5.864-3.114 9.202 0.147 3.338 1.531 6.512 3.901 8.917l-2.205 4.835c-0.078 0.182-0.112 0.381-0.095 0.579 0.009 0.199 0.078 0.389 0.19 0.553 0.104 0.164 0.259 0.303 0.432 0.398 0.182 0.095 0.381 0.147 0.579 0.147h1.124c0.234-0.009 0.458-0.069 0.657-0.199 0.199-0.121 0.355-0.303 0.45-0.51l1.643-3.607c2.205 1.323 4.739 2.032 7.325 2.032 2.595 0 5.129-0.709 7.334-2.032l1.643 3.607c0.095 0.208 0.251 0.389 0.45 0.51 0.19 0.13 0.424 0.19 0.657 0.199h1.116c0.208 0 0.407-0.052 0.579-0.147 0.182-0.095 0.329-0.233 0.441-0.398s0.173-0.355 0.19-0.553c0.017-0.199-0.017-0.398-0.104-0.579l-2.197-4.835c2.361-2.404 3.753-5.578 3.892-8.917 0.147-3.338-0.96-6.608-3.114-9.202l1.721-1.678 1.159 1.133c0.043 0.043 0.087 0.069 0.147 0.095 0.052 0.017 0.112 0.035 0.164 0.035 0.061 0 0.121-0.017 0.173-0.035 0.061-0.026 0.104-0.052 0.147-0.095l1.228-1.202c0.458-0.45 0.718-1.055 0.718-1.695 0-0.631-0.259-1.245-0.718-1.695zM2.257 5.898l-0.908-0.891c-0.294-0.285-0.458-0.675-0.458-1.081s0.164-0.787 0.458-1.072l1.565-1.531c0.285-0.285 0.683-0.45 1.098-0.45s0.804 0.164 1.098 0.45l0.908 0.891-3.762 3.684zM4.368 5.068l0.813-0.796 1.669 1.643c-0.277 0.251-0.553 0.519-0.813 0.796l-1.669-1.643zM6.547 30.936c-0.026 0.052-0.061 0.104-0.112 0.138-0.052 0.026-0.112 0.043-0.173 0.043h-1.124c-0.052 0-0.104-0.009-0.147-0.035-0.052-0.026-0.087-0.061-0.121-0.104-0.026-0.043-0.043-0.095-0.043-0.147-0.009-0.052 0-0.104 0.026-0.147l2.067-4.549c0.424 0.381 0.865 0.735 1.341 1.055l-1.712 3.745zM27.805 30.979c-0.026 0.043-0.069 0.078-0.112 0.104-0.052 0.026-0.104 0.035-0.156 0.035h-1.116c-0.061 0-0.121-0.017-0.173-0.043-0.052-0.035-0.095-0.087-0.121-0.138l-1.704-3.745c0.467-0.32 0.917-0.675 1.341-1.046l2.067 4.541c0.026 0.043 0.035 0.095 0.026 0.147 0 0.052-0.026 0.104-0.052 0.147v0zM16.337 28.843c-2.595 0-5.129-0.752-7.291-2.171-2.154-1.41-3.831-3.416-4.826-5.76-0.995-2.352-1.254-4.93-0.752-7.421 0.51-2.491 1.756-4.783 3.598-6.582 1.833-1.79 4.169-3.018 6.711-3.511 2.551-0.493 5.189-0.242 7.585 0.726 2.396 0.977 4.445 2.621 5.89 4.731 1.436 2.119 2.205 4.601 2.205 7.144 0 3.399-1.384 6.668-3.849 9.072-2.456 2.413-5.795 3.762-9.271 3.771zM26.638 6.711c-0.259-0.277-0.528-0.545-0.813-0.796l1.678-1.643 0.813 0.796-1.678 1.643zM31.334 5.008l-0.917 0.891-3.762-3.684 0.908-0.891c0.294-0.285 0.692-0.45 1.107-0.45 0.407 0 0.804 0.164 1.098 0.45l1.565 1.531c0.285 0.285 0.45 0.666 0.45 1.072s-0.164 0.796-0.45 1.081v0z"></path>
</symbol>
</defs>
</svg>
